<?xml version="1.0" encoding="UTF-8" standalone="no"?>
<!DOCTYPE svg PUBLIC "-//W3C//DTD SVG 1.1//EN" "http://www.w3.org/Graphics/SVG/1.1/DTD/svg11.dtd">
<svg xmlns="http://www.w3.org/2000/svg" version="1.1" viewBox="0 0 600 600" width="600.0pt" height="600.0pt">
<path d="M 161.98 75.01 C 179.65 75.00 197.39 74.98 215.06 75.02 C 220.63 75.02 225.49 80.43 225.01 85.97 C 224.94 103.31 225.00 120.68 224.98 138.02 C 225.04 141.36 224.10 144.35 221.63 146.67 C 217.73 150.54 211.15 150.63 207.16 146.84 C 204.56 144.53 203.58 141.43 203.64 138.02 C 203.66 129.08 203.59 120.15 203.70 111.22 C 199.41 115.75 194.90 120.07 190.51 124.51 C 150.07 164.89 109.73 205.44 69.21 245.72 C 78.48 245.66 87.76 245.60 97.03 245.72 C 102.73 245.72 107.49 250.32 107.61 256.03 C 107.83 261.87 102.88 266.97 97.05 266.96 C 79.39 267.07 61.66 266.95 43.99 267.02 C 38.52 267.60 32.89 262.56 33.01 257.05 C 32.98 239.72 33.03 222.33 32.98 205.00 C 33.03 202.58 32.99 200.36 34.15 198.17 C 36.44 193.56 42.10 191.22 46.97 192.91 C 51.33 194.35 54.25 198.36 54.27 202.96 C 54.37 212.21 54.32 221.47 54.27 230.72 C 55.80 229.10 57.36 227.51 58.94 225.94 C 102.23 182.74 145.40 139.36 188.75 96.23 C 179.49 96.28 170.23 96.29 160.97 96.25 C 157.57 96.23 154.82 94.89 152.68 92.28 C 149.50 88.46 149.60 82.60 152.81 78.83 C 155.11 76.04 158.44 74.95 161.98 75.01 Z" fill="#ccc" />
<path d="M 343.14 89.87 C 349.67 97.33 353.15 107.10 353.04 116.99 C 353.04 147.48 353.06 177.97 353.03 208.46 C 365.70 201.45 382.02 201.12 394.71 208.27 C 401.86 212.14 407.68 217.94 411.74 224.97 C 422.68 216.88 436.95 213.97 450.08 217.84 C 465.55 222.23 477.91 235.63 480.47 251.60 C 489.61 246.30 500.39 244.47 510.77 246.57 C 529.71 250.34 544.94 267.42 544.99 286.99 C 545.01 343.99 545.00 401.00 545.00 458.00 C 545.03 469.31 543.62 480.59 540.62 491.50 C 535.24 511.18 524.79 529.02 511.07 544.04 C 495.04 561.60 475.04 575.60 453.43 585.43 C 449.36 587.55 445.40 586.95 441.00 587.00 C 403.33 587.00 365.66 587.00 327.99 587.00 C 321.57 587.02 315.23 585.91 309.24 583.60 C 296.86 578.94 285.88 569.64 277.07 559.95 C 265.72 547.51 256.25 532.71 247.78 518.20 C 227.59 483.11 212.23 445.72 194.62 409.37 C 190.49 400.68 186.13 392.05 181.25 383.76 C 177.34 377.05 172.67 371.58 169.89 364.19 C 165.25 352.46 165.05 339.20 170.75 327.80 C 177.78 313.58 193.21 304.50 208.99 304.67 C 219.93 304.61 230.48 309.06 238.09 316.90 C 247.99 327.04 257.80 337.28 267.71 347.41 C 267.71 272.94 267.71 198.47 267.71 124.00 C 267.72 117.88 267.43 112.17 269.16 106.21 C 273.16 91.55 285.51 79.86 300.24 76.31 C 315.65 72.42 332.80 77.79 343.14 89.87 Z" fill="#ccc" />
<path d="M 309.99 96.37 C 318.64 96.14 327.09 101.45 330.39 109.49 C 332.27 113.96 331.60 119.18 331.71 124.00 C 331.77 179.33 331.62 232.31 331.64 287.01 C 331.57 290.43 332.37 293.63 334.98 295.99 C 338.63 299.62 344.69 299.99 348.72 296.76 C 351.52 294.62 352.95 291.57 352.95 288.05 C 353.07 273.36 352.87 258.66 353.05 243.98 C 353.06 235.60 359.09 228.44 366.77 225.67 C 375.99 222.22 386.72 225.67 392.23 233.80 C 395.26 238.06 395.85 242.91 395.67 248.00 C 395.04 268.39 395.66 288.66 395.65 309.03 C 395.63 312.13 396.56 315.02 398.84 317.19 C 402.65 321.19 409.49 321.30 413.47 317.49 C 415.92 315.23 417.00 312.33 416.97 309.03 C 417.02 291.69 416.97 274.31 417.02 256.97 C 417.15 245.25 428.75 236.48 440.02 237.54 C 449.92 238.27 458.72 246.11 459.54 256.18 C 460.04 275.74 458.96 295.43 459.70 314.96 C 459.83 320.65 459.51 326.37 459.82 332.05 C 460.21 337.33 464.78 341.46 470.01 341.65 C 475.96 341.83 481.02 337.01 481.00 331.04 C 481.16 316.02 480.92 300.98 481.11 285.96 C 481.60 275.24 491.63 267.13 502.03 267.07 C 513.08 266.73 523.52 275.68 523.68 286.97 C 523.75 339.23 523.69 391.72 523.71 444.00 C 523.64 454.88 524.15 465.20 522.21 475.99 C 519.13 494.44 510.71 511.44 498.75 525.74 C 485.32 541.80 467.82 554.68 449.13 563.99 C 447.42 564.79 445.97 565.70 444.01 565.67 C 406.08 565.67 367.90 565.65 329.99 565.68 C 325.10 565.82 320.26 565.17 315.74 563.26 C 306.44 559.41 298.31 551.75 291.71 544.31 C 280.11 530.93 270.70 515.34 262.08 499.92 C 243.59 466.53 228.60 430.25 211.90 396.11 C 206.42 384.94 200.60 373.72 193.53 363.47 C 188.97 356.69 186.12 348.00 188.67 339.93 C 192.04 329.44 204.68 323.57 215.00 326.98 C 218.09 327.94 220.73 329.70 222.96 332.02 C 238.56 348.08 254.24 364.10 269.81 380.21 C 271.80 382.27 274.00 383.93 276.96 384.21 C 281.34 384.81 285.65 382.59 287.74 378.71 C 289.51 375.65 288.97 371.43 289.05 368.00 C 289.03 286.33 289.05 204.67 289.04 123.00 C 289.10 118.66 288.64 114.31 290.20 110.20 C 293.13 102.07 301.40 96.46 309.99 96.37 Z" fill="#111" />
</svg>
