<?xml version="1.0" encoding="UTF-8" standalone="no"?>
<!DOCTYPE svg PUBLIC "-//W3C//DTD SVG 1.1//EN" "http://www.w3.org/Graphics/SVG/1.1/DTD/svg11.dtd">
<svg xmlns="http://www.w3.org/2000/svg" version="1.1" viewBox="0 0 600 600" width="600.0pt" height="600.0pt">
<path d="M 287.16 12.80 C 297.59 19.72 307.99 26.68 318.43 33.60 C 321.69 35.67 323.75 39.09 323.68 42.99 C 323.71 48.34 319.34 52.99 314.04 53.45 C 310.39 53.85 307.64 52.20 304.76 50.24 C 300.19 47.06 295.38 44.20 291.00 40.78 C 291.01 61.20 291.00 81.63 291.00 102.06 C 291.10 108.35 283.77 112.75 278.03 111.01 C 274.69 110.16 270.58 106.86 270.99 103.04 C 271.02 82.29 270.99 61.53 271.00 40.77 C 266.21 44.46 260.99 47.60 256.01 51.04 C 253.04 53.15 249.60 54.16 246.01 53.07 C 241.20 51.73 238.03 46.90 238.43 41.97 C 238.71 38.43 240.68 35.55 243.62 33.65 C 254.03 26.71 264.42 19.71 274.87 12.83 C 278.68 10.29 283.35 10.23 287.16 12.80 Z" fill="#ccc" />
<path d="M 336.58 134.44 C 348.30 141.45 356.07 154.29 356.40 168.00 C 356.60 185.92 356.29 203.86 356.57 221.78 C 356.36 236.18 356.35 250.60 356.73 265.00 C 356.54 271.81 356.39 278.59 356.43 285.40 C 363.86 281.24 372.51 279.35 381.00 279.97 C 397.57 281.17 412.37 292.53 418.16 308.04 C 426.45 302.86 436.28 300.38 446.04 301.45 C 461.43 302.92 475.38 313.24 481.32 327.51 C 483.56 332.72 484.47 338.33 484.46 343.99 C 484.46 381.33 484.46 418.67 484.46 456.00 C 484.45 464.03 483.98 472.03 482.60 479.95 C 478.95 501.76 469.20 522.12 455.16 539.15 C 439.14 558.75 417.98 574.31 395.15 585.10 C 391.17 587.19 387.32 586.62 383.00 586.67 C 344.99 586.66 306.98 586.67 268.97 586.67 C 261.67 586.75 254.47 585.07 247.82 582.09 C 235.17 576.47 224.63 566.72 215.67 556.35 C 204.43 543.16 195.09 528.32 186.62 513.24 C 169.07 482.01 154.67 448.27 139.20 415.80 C 132.39 401.65 126.01 387.96 117.08 374.94 C 110.24 365.02 106.50 353.08 107.85 340.98 C 108.91 331.11 113.67 321.69 121.24 315.23 C 134.53 303.66 155.28 301.47 170.56 310.36 C 175.97 313.36 179.62 317.75 183.84 322.15 C 191.59 330.32 199.35 338.47 207.12 346.62 C 207.16 298.11 207.07 249.51 207.16 201.01 C 207.40 183.13 220.17 167.28 237.05 162.03 C 248.37 158.42 260.99 159.88 271.33 165.68 C 273.06 149.11 285.26 134.95 301.05 130.03 C 312.81 126.28 326.08 127.99 336.58 134.44 Z" fill="#ccc" />
<path d="M 119.79 155.00 C 120.11 158.52 118.69 160.99 116.75 163.73 C 113.50 168.29 110.79 173.27 107.10 177.42 C 127.40 177.60 147.71 177.47 168.01 177.49 C 173.33 176.92 178.35 182.83 177.72 187.99 C 177.94 192.40 175.31 195.00 172.10 197.49 C 150.44 197.56 128.76 197.38 107.10 197.58 C 110.25 201.09 112.50 205.10 115.17 208.96 C 116.61 211.15 118.28 213.32 119.35 215.71 C 120.21 219.74 120.14 223.93 116.96 226.95 C 113.88 230.15 109.57 230.29 105.50 229.40 C 102.68 228.41 100.87 225.99 99.27 223.61 C 92.68 213.59 85.91 203.66 79.34 193.64 C 76.77 189.93 76.73 185.06 79.31 181.34 C 85.92 171.32 92.66 161.36 99.25 151.31 C 101.01 148.65 102.94 146.26 106.12 145.31 C 112.23 142.91 120.21 148.27 119.79 155.00 Z" fill="#ccc" />
<path d="M 457.06 145.48 C 460.06 146.25 462.09 148.95 463.73 151.40 C 470.33 161.41 477.09 171.34 483.66 181.36 C 486.24 185.05 486.28 189.97 483.69 193.66 C 476.77 204.09 469.78 214.55 462.85 224.99 C 460.94 227.93 458.33 229.31 455.10 230.39 C 451.44 230.28 448.00 229.34 445.54 226.45 C 442.83 223.51 442.89 219.51 443.63 215.82 C 444.57 213.58 446.12 211.51 447.46 209.48 C 450.25 205.46 452.63 201.27 455.85 197.56 C 436.57 197.42 417.28 197.52 398.00 197.52 C 395.06 197.36 392.32 198.11 389.90 196.12 C 386.36 193.54 384.84 190.40 385.33 185.96 C 385.46 181.98 388.06 179.82 390.90 177.51 C 412.57 177.44 434.24 177.62 455.90 177.42 C 452.62 173.74 450.30 169.57 447.49 165.54 C 446.15 163.51 444.60 161.47 443.64 159.23 C 442.79 155.20 442.87 151.06 446.04 148.04 C 449.05 144.93 453.02 144.79 457.06 145.48 Z" fill="#ccc" />
<path d="M 332.71 160.28 C 335.99 165.94 334.94 171.74 335.11 178.00 C 335.23 225.34 334.84 272.69 335.11 320.02 C 334.89 324.56 337.07 328.75 341.25 330.69 C 346.01 333.00 351.99 331.22 354.77 326.75 C 356.94 323.50 356.08 319.24 357.34 315.46 C 360.34 306.49 369.69 300.70 379.02 301.30 C 388.99 301.73 398.27 309.82 399.00 319.96 C 399.33 327.64 398.89 335.36 399.19 343.04 C 399.34 346.62 401.45 349.75 404.45 351.60 C 408.67 354.08 414.34 353.24 417.59 349.54 C 419.94 347.13 420.29 344.23 420.55 341.01 C 421.07 333.46 426.40 327.13 433.25 324.28 C 440.59 321.13 449.36 322.41 455.52 327.47 C 460.20 331.26 463.13 336.92 463.09 342.99 C 463.11 381.64 463.13 420.35 463.08 459.00 C 463.02 479.46 456.80 499.45 445.45 516.46 C 432.56 535.76 413.63 551.36 393.26 562.26 C 390.74 563.44 387.88 565.52 385.04 565.34 C 346.36 565.32 307.67 565.33 268.99 565.34 C 258.40 565.51 248.49 558.93 241.00 552.01 C 230.64 542.45 222.13 530.24 214.58 518.42 C 192.88 483.55 176.65 445.04 159.08 407.92 C 151.59 392.45 144.61 377.41 134.82 363.16 C 130.41 356.70 127.56 348.25 129.55 340.46 C 132.03 330.84 142.38 324.67 152.04 325.88 C 156.43 326.38 160.34 328.42 163.34 331.64 C 178.81 347.89 194.24 364.05 209.71 380.31 C 213.30 384.26 219.62 385.20 223.97 381.96 C 227.23 379.63 228.59 375.94 228.45 372.01 C 228.43 315.33 228.44 258.64 228.45 201.95 C 228.27 190.81 238.13 181.70 249.00 181.41 C 259.55 180.89 270.39 189.06 270.97 199.96 C 271.17 233.01 271.08 266.00 271.11 299.05 C 270.90 304.12 274.08 308.71 279.03 310.01 C 284.17 311.45 289.85 308.56 291.69 303.56 C 292.22 301.47 291.96 299.14 292.02 297.00 C 291.97 266.69 292.02 236.32 291.99 206.00 C 292.00 203.65 292.59 201.37 292.60 199.03 C 292.30 189.34 292.48 179.64 292.45 169.95 C 292.32 161.69 297.72 154.42 305.15 151.19 C 315.09 146.74 327.37 150.83 332.71 160.28 Z" fill="#111" />
</svg>
