<?xml version="1.0" encoding="UTF-8" standalone="no"?>
<!DOCTYPE svg PUBLIC "-//W3C//DTD SVG 1.1//EN" "http://www.w3.org/Graphics/SVG/1.1/DTD/svg11.dtd">
<svg xmlns="http://www.w3.org/2000/svg" version="1.1" viewBox="0 0 600 600" width="600.0pt" height="600.0pt">
<path d="M 0.00 0.00 L 600.00 0.00 L 600.00 600.00 L 0.00 600.00 L 0.00 0.00 Z" fill="#111" />
<path d="M 256.79 14.19 C 266.99 21.03 277.21 27.80 287.43 34.60 C 290.70 36.68 292.74 40.06 292.68 44.00 C 292.69 49.36 288.34 54.00 283.02 54.46 C 279.37 54.84 276.63 53.19 273.76 51.24 C 269.20 48.06 264.37 45.20 259.99 41.77 C 260.01 62.20 259.99 82.62 260.00 103.04 C 260.18 108.55 254.19 112.85 248.99 112.35 C 244.95 112.15 239.57 108.52 239.99 104.03 C 240.02 83.28 239.99 62.52 240.00 41.77 C 234.80 45.71 229.22 49.19 223.78 52.81 C 219.01 55.93 212.26 54.59 209.20 49.76 C 205.98 44.95 207.22 38.30 212.03 35.08 C 222.39 28.07 232.85 21.16 243.24 14.21 C 247.58 11.17 252.45 11.10 256.79 14.19 Z" fill="#ccc" />
<path d="M 284.74 144.28 C 290.51 151.57 293.55 160.71 293.45 170.00 C 293.49 201.08 293.46 232.84 293.44 263.98 C 301.87 259.49 311.53 257.58 321.01 258.97 C 336.43 261.26 349.72 272.13 355.16 286.72 C 363.14 281.69 372.58 279.27 382.00 279.97 C 398.57 281.16 413.37 292.53 419.16 308.05 C 430.90 300.59 445.89 299.05 458.80 304.37 C 474.35 310.64 485.52 326.05 485.44 343.00 C 485.48 380.31 485.44 417.68 485.46 455.00 C 485.50 464.74 484.85 474.44 482.84 484.00 C 478.77 504.07 469.54 522.73 456.62 538.58 C 441.21 557.68 420.78 572.98 398.85 583.82 C 395.96 585.18 393.31 586.68 390.03 586.66 C 350.02 586.68 310.01 586.66 270.00 586.67 C 264.53 586.73 259.18 585.83 253.99 584.10 C 241.26 579.83 230.53 571.23 221.40 561.59 C 209.36 548.80 199.37 533.57 190.57 518.43 C 171.62 485.61 156.82 450.73 140.52 416.47 C 134.76 404.52 129.09 392.33 122.02 380.98 C 119.16 376.35 116.05 372.38 113.71 367.47 C 109.58 358.95 107.68 349.42 108.97 340.00 C 110.17 330.77 114.72 321.88 121.70 315.71 C 134.98 303.71 156.11 301.34 171.61 310.38 C 176.79 313.27 180.32 317.41 184.35 321.64 C 192.26 329.98 200.20 338.30 208.12 346.63 C 208.12 288.42 208.13 230.21 208.12 172.00 C 208.08 167.25 208.45 162.56 209.93 158.02 C 214.30 143.71 226.66 132.50 241.20 129.18 C 257.10 125.39 274.64 131.40 284.74 144.28 Z" fill="#ccc" />
<path d="M 387.98 144.82 C 392.01 144.70 395.71 146.75 397.86 150.15 C 404.81 160.56 411.81 170.96 418.69 181.41 C 421.21 185.09 421.26 189.92 418.73 193.61 C 412.09 203.66 405.33 213.65 398.73 223.72 C 396.44 227.33 394.25 229.18 390.08 230.31 C 389.04 230.30 388.00 230.29 386.96 230.28 C 384.28 229.28 381.82 228.31 380.09 225.89 C 377.85 223.16 378.00 219.46 378.53 216.17 C 379.17 214.17 380.58 212.34 381.72 210.58 C 384.81 206.17 387.37 201.64 390.85 197.54 C 370.57 197.45 350.28 197.51 330.00 197.51 C 324.69 198.08 319.63 192.19 320.28 187.02 C 320.04 182.63 322.69 180.00 325.89 177.51 C 347.55 177.46 369.20 177.56 390.86 177.46 C 386.99 172.81 383.95 167.49 380.47 162.53 C 377.89 159.33 377.61 154.74 378.95 151.00 C 380.65 147.37 384.12 145.38 387.98 144.82 Z" fill="#ccc" />
<path d="M 109.94 144.77 C 110.97 144.73 112.00 144.69 113.04 144.67 C 116.80 146.00 119.98 147.88 121.39 151.84 C 122.19 155.63 121.98 159.37 119.54 162.53 C 116.06 167.48 113.06 172.83 109.15 177.43 C 129.43 177.59 149.72 177.47 170.01 177.49 C 175.32 176.89 180.35 182.83 179.72 187.98 C 179.96 192.37 177.31 195.00 174.11 197.49 C 152.45 197.56 130.79 197.39 109.14 197.57 C 112.37 201.29 114.72 205.46 117.52 209.48 C 118.83 211.47 120.35 213.46 121.32 215.64 C 122.22 219.67 122.15 223.93 118.95 226.95 C 115.95 230.08 111.97 230.21 107.93 229.52 C 104.90 228.73 102.93 226.06 101.26 223.59 C 94.66 213.57 87.89 203.63 81.31 193.59 C 78.78 189.90 78.74 185.08 81.27 181.38 C 88.20 170.95 95.18 160.51 102.12 150.05 C 104.24 147.04 106.34 145.60 109.94 144.77 Z" fill="#ccc" />
<path d="M 253.01 149.51 C 262.46 150.38 271.51 158.18 271.97 167.98 C 272.14 211.68 272.11 255.32 272.11 299.02 C 271.99 303.00 273.78 306.74 277.22 308.81 C 282.03 311.80 288.56 310.33 291.64 305.61 C 293.99 302.27 293.02 298.17 294.33 294.19 C 297.18 285.54 305.99 279.77 315.00 279.97 C 325.52 279.96 335.40 288.28 336.02 299.00 C 336.30 306.60 335.91 314.23 336.18 321.83 C 336.43 326.24 339.55 330.05 343.78 331.27 C 349.01 332.88 354.91 329.94 356.74 324.78 C 357.74 321.55 357.29 318.05 358.58 314.78 C 361.83 306.19 370.92 300.72 380.00 301.30 C 389.99 301.73 399.28 309.83 400.00 319.99 C 400.33 327.65 399.90 335.36 400.19 343.03 C 400.33 346.35 402.15 349.30 404.83 351.19 C 409.05 354.15 415.16 353.44 418.57 349.56 C 420.95 347.13 421.29 344.22 421.55 340.99 C 422.08 333.47 427.38 327.16 434.19 324.30 C 441.33 321.22 449.83 322.32 455.98 327.04 C 460.96 330.82 464.14 336.68 464.09 342.99 C 464.11 381.65 464.13 420.35 464.08 459.00 C 464.02 479.47 457.80 499.46 446.45 516.46 C 433.55 535.76 414.63 551.36 394.26 562.26 C 391.73 563.44 388.86 565.53 386.01 565.34 C 347.34 565.32 308.67 565.34 269.99 565.34 C 260.67 565.46 252.19 560.54 245.19 554.81 C 233.34 544.91 223.84 531.35 215.58 518.42 C 193.87 483.53 177.65 445.06 160.08 407.92 C 152.59 392.45 145.61 377.41 135.82 363.16 C 131.41 356.70 128.57 348.26 130.54 340.47 C 132.93 331.20 142.65 325.10 152.00 325.78 C 156.82 326.09 161.06 328.13 164.34 331.65 C 179.62 347.72 194.95 363.71 210.20 379.80 C 212.51 382.34 215.50 384.01 219.00 383.90 C 223.36 384.01 227.42 380.90 228.79 376.83 C 229.22 373.94 228.95 370.92 229.00 368.00 C 229.00 303.00 228.99 237.99 229.01 172.99 C 229.24 168.46 229.86 163.30 232.45 159.46 C 236.78 152.61 244.93 148.60 253.01 149.51 Z" fill="#111" />
</svg>
